<svg id="Capa_1" enable-background="new 0 0 512 512" height="512" viewBox="0 0 512 512" width="512" xmlns="http://www.w3.org/2000/svg"><g><path d="m250.817 312.18s9.253 15.453 21.905 28.611c10.332 10.746 25.521 15.338 40.148 12.461l32.418-6.377c10.183-2.003 15.281-13.584 9.793-22.392-7.425-11.915-14.769-26.367-15.654-33.845z" fill="#a1dcfc"/><path d="m90.479 307.254c3.374 32.209 37.075 58.132 71.167 55.215 26.824-2.295 28.352-31.015 3.812-62.917z" fill="#a1dcfc"/><path d="m177.646 207.642c5.582-16.609 32.721-42.003 60.258-56.635 12.169-6.466 27.139-4.195 36.883 5.55l22.71 22.71c5.582 5.582 4.069 15-2.996 18.523-12.627 6.298-26.949 14.518-35.059 18.869z" fill="#565e75"/><path d="m397.712 273.963c9.634 18.445 73.454 98.144 101.23 90.12 30.038-8.678 1.3-69.145-16.854-94.654-3.76-5.284-3.76-12.368 0-17.651 18.154-25.51 46.891-85.977 16.854-94.654-27.777-8.024-91.596 71.674-101.23 90.12z" fill="#565e75"/><path d="m202.025 176.304c-12.158 10.961-21.38 22.417-24.379 31.338l81.796 9.018c8.111-4.351 22.432-12.571 35.059-18.869 4.941-2.464 7.155-7.811 6.136-12.713-1.313-.161-2.607-.325-3.936-.483-31.662-3.775-64.461-6.444-94.676-8.291z" fill="#404656"/><path d="m434.035 250.494c-52.457-15.388-251.17-20.899-330.167-52.1-3.028-.028-5.836-.042-8.388-.042-7.214 0-14.217.4-20.941 1.169-34.746 16.03-46.372 34.693-46.372 64.432 0 34.381 51.717 54.627 80.857 58.896 7.833-.018 15.967-.078 24.334-.187 8.346-3.637 15.368-3.925 21.624-.386 123.672-2.797 282.782-16.696 282.782-61.674 0-3.561-1.298-6.927-3.729-10.108z" fill="#b8e5ff"/><path d="m74.539 199.52c-43.075 4.933-74.539 25.205-74.539 54.944 0 34.381 46.118 68.391 104.074 68.391 1.635 0 3.288-.002 4.951-.006-59.943-24.204-47.985-100.694-34.486-123.329z" fill="#a1dcfc"/><g><g><ellipse cx="110.125" cy="279.776" fill="#fff" rx="30.241" ry="24.082"/></g><g fill="#565e75"><path d="m92.501 264.094c-4.143 0-7.5-3.358-7.5-7.5v-12.362c0-4.142 3.357-7.5 7.5-7.5s7.5 3.358 7.5 7.5v12.362c0 4.142-3.357 7.5-7.5 7.5z"/><path d="m28.168 271.453c-8.668 0-16.911-3.754-22.616-10.299-2.722-3.123-2.396-7.86.727-10.581 3.122-2.722 7.859-2.397 10.582.726 2.854 3.276 6.977 5.155 11.308 5.155s8.452-1.879 11.307-5.155c2.722-3.123 7.459-3.448 10.582-.726 3.123 2.721 3.448 7.459.727 10.581-5.707 6.545-13.949 10.299-22.617 10.299z"/></g></g><path d="m162.464 272.276c-.015 0-.029 0-.043 0-4.143.023-7.481 3.4-7.458 7.542.118 20.957-11.096 34.634-21.604 42.844 7.055-.092 14.278-.219 21.624-.386 8.283-10.18 15.084-24.15 14.98-42.542-.024-4.128-3.376-7.458-7.499-7.458z" fill="#a1dcfc"/><path d="m103.868 198.393c13.534 53.133 127.277 53.664 330.167 52.1-31.464-41.189-253.591-51.384-330.167-52.1z" fill="#565e75"/></g></svg>