<svg height="512pt" viewBox="-35 0 512 512.00035" width="512pt" xmlns="http://www.w3.org/2000/svg"><path d="m327.8125 95.773438c-3.476562 0-6.917969.132812-10.324219.394531-19.613281-34.867188-56.957031-58.421875-99.808593-58.421875-44.089844 0-82.351563 24.9375-101.464844 61.46875-.757813-.011719-1.511719-.027344-2.269532-.027344-74.644531 0-129.109374 70.609375-110.148437 142.808594l41.488281 158.003906c9.808594 37.347656 42.542969 63.851562 80.703125 66.054688 20.871094 27.894531 54.171875 45.945312 91.691407 45.945312 38.960937 0 73.371093-19.476562 94.039062-49.214844 39.878906-.492187 74.601562-27.539062 84.753906-66.199218l41.488282-158.003907c18.957031-72.199219-35.503907-142.808593-110.148438-142.808593zm0 0" fill="#8f001c"/><path d="m240.363281 128.3125c-3.007812-35.621094-12.136719-88.253906-39.34375-119.921875-8.671875-10.089844-23.882812-11.242187-33.976562-2.574219-10.097657 8.675782-11.246094 23.886719-2.574219 33.976563 16.117188 18.761719 23.707031 54.429687 26.96875 84.101562 8.582031 6.105469 16.414062 13.195313 23.328125 21.109375-.039063 0-.078125.003906-.117187.003906 1.007812-.027343 2.015624-.042968 3.03125-.042968 2.117187 0 4.222656.0625 6.3125.175781 4.957031-6.078125 10.441406-11.707031 16.371093-16.828125zm0 0" fill="#447111"/><path d="m217.679688 512c-63.207032 0-114.445313-51.238281-114.445313-114.445312v-138.140626c0-63.207031 51.238281-114.449218 114.445313-114.449218 63.207031 0 114.449218 51.242187 114.449218 114.449218v138.140626c0 63.207031-51.242187 114.445312-114.449218 114.445312zm0 0" fill="#ea2642"/><g fill="#bf0025"><path d="m327.8125 95.773438c-41.886719 0-79.273438 19.242187-103.820312 49.367187 60.273437 3.277344 108.136718 53.183594 108.136718 114.273437v138.136719c0 24.246094-7.546875 46.726563-20.410156 65.234375 39.878906-.492187 74.601562-27.539062 84.753906-66.199218l41.488282-158.003907c18.957031-72.199219-35.503907-142.808593-110.148438-142.808593zm0 0"/><path d="m103.230469 397.554688v-138.140626c0-62.234374 49.675781-112.867187 111.535156-114.410156-24.535156-28.078125-60.605469-45.816406-100.820313-45.816406-74.644531 0-129.105468 70.609375-110.148437 142.804688l41.488281 158.007812c9.808594 37.347656 42.542969 63.851562 80.703125 66.054688-14.292969-19.097657-22.757812-42.8125-22.757812-68.5zm0 0"/></g></svg>