<?xml version="1.0" encoding="UTF-8" standalone="no"?>
<!-- Created with Inkscape (http://www.inkscape.org/) -->

<svg
   xmlns:dc="http://purl.org/dc/elements/1.1/"
   xmlns:cc="http://creativecommons.org/ns#"
   xmlns:rdf="http://www.w3.org/1999/02/22-rdf-syntax-ns#"
   xmlns:svg="http://www.w3.org/2000/svg"
   xmlns="http://www.w3.org/2000/svg"
   xmlns:sodipodi="http://sodipodi.sourceforge.net/DTD/sodipodi-0.dtd"
   xmlns:inkscape="http://www.inkscape.org/namespaces/inkscape"
   width="74mm"
   height="105mm"
   viewBox="0 0 74 105"
   version="1.1"
   id="svg8"
   inkscape:version="0.92.1 r15371"
   sodipodi:docname="piment.svg">
  <defs
     id="defs2" />
  <sodipodi:namedview
     id="base"
     pagecolor="#ffffff"
     bordercolor="#666666"
     borderopacity="1.0"
     inkscape:pageopacity="0.0"
     inkscape:pageshadow="2"
     inkscape:zoom="0.45254834"
     inkscape:cx="484.82483"
     inkscape:cy="426.99667"
     inkscape:document-units="mm"
     inkscape:current-layer="layer2"
     showgrid="false"
     inkscape:window-width="1366"
     inkscape:window-height="718"
     inkscape:window-x="0"
     inkscape:window-y="24"
     inkscape:window-maximized="1"
     showguides="true"
     objecttolerance="15"
     units="mm">
    <inkscape:grid
       type="xygrid"
       id="grid4758" />
  </sodipodi:namedview>
  <metadata
     id="metadata5">
    <rdf:RDF>
      <cc:Work
         rdf:about="">
        <dc:format>image/svg+xml</dc:format>
        <dc:type
           rdf:resource="http://purl.org/dc/dcmitype/StillImage" />
        <dc:title></dc:title>
      </cc:Work>
    </rdf:RDF>
  </metadata>
  <g
     inkscape:label="Calque 1"
     inkscape:groupmode="layer"
     id="layer1"
     transform="translate(0,-192)">
    <g
       inkscape:groupmode="layer"
       id="layer2"
       inkscape:label="fond" />
    <g
       id="g4767"
       transform="matrix(0.9334939,0,0,0.9334939,-54.910263,125.92498)">
      <path
         sodipodi:nodetypes="cccccccccccccccccccccc"
         inkscape:connector-curvature="0"
         id="path4489"
         d="m 79.958094,114.36185 v 19.24341 l 2.672695,10.4235 3.474506,10.95805 9.621702,13.89802 6.414473,6.41447 9.88897,3.74177 1.06907,-1.33635 -2.13815,-3.4745 -2.13816,-7.48355 -12.027125,-18.70886 -1.069078,-10.95805 2.138156,-10.15624 3.207237,-15.23437 2.40542,-12.561665 v 0 l 2.93997,-6.681737 -6.949011,-1.069078 -10.15624,-3.474503 -5.078121,0.534537 -1.870888,10.423512 z"
         style="fill:#d20000;fill-opacity:1;stroke:#cd0000;stroke-width:0.26458332px;stroke-linecap:butt;stroke-linejoin:miter;stroke-opacity:1" />
      <path
         sodipodi:nodetypes="cccccccccccc"
         inkscape:connector-curvature="0"
         id="path4489-3"
         d="m 79.958094,114.36185 v 19.24341 l 2.672698,10.4235 3.4745,10.95805 9.62171,13.89802 6.414458,6.41448 9.88898,3.74176 1.06908,-1.33634 C 73.236669,152.46841 93.591612,100.54269 89.312532,87.90216 l -5.07812,0.53454 -1.87089,10.42351 z"
         style="fill:#ae0000;fill-opacity:1;stroke:#be0000;stroke-width:0.26458332px;stroke-linecap:butt;stroke-linejoin:miter;stroke-opacity:1" />
    </g>
    <path
       style="fill:#008700;fill-opacity:1;stroke:#008c00;stroke-width:0.24698691px;stroke-linecap:butt;stroke-linejoin:miter;stroke-opacity:1"
       d="m 23.722043,208.4801 4.740393,-0.49899 9.480788,3.24342 c 0,0 5.224143,1.15398 6.486861,0.99798 1.262719,-0.15599 1.880188,-0.90577 1.880188,-0.90577 h -2.249347 l -3.087335,-0.39694 -0.749783,-1.23494 -2.46987,-2.02881 -1.631878,-1.41136 -2.11703,-0.17641 -1.323144,0.52925 -1.94061,0.66158 -1.89651,-0.35285 -2.072924,0.57337 -3.049796,1.00046 z"
       id="path4777"
       inkscape:connector-curvature="0" />
    <path
       style="fill:#005600;fill-opacity:1;stroke:#005600;stroke-width:0.24698691px;stroke-linecap:butt;stroke-linejoin:miter;stroke-opacity:1"
       d="m 23.722039,208.4801 4.740393,-0.49899 c 3.35155,1.19943 10.491199,-1.99664 5.542595,-1.91283 l -1.323144,0.52925 -1.940611,0.66158 -1.89651,-0.35285 -2.072924,0.57337 -3.049796,1.00047 z"
       id="path4777-1"
       inkscape:connector-curvature="0"
       sodipodi:nodetypes="ccccccccc" />
    <path
       style="fill:#008700;fill-opacity:1;stroke:#008700;stroke-width:0.24698691px;stroke-linecap:butt;stroke-linejoin:miter;stroke-opacity:1"
       d="m 34.005025,206.06827 -0.661567,-3.57248 c 0,0 0,0.0441 0.617467,-3.21966 0.617467,-3.26376 0.705677,-3.83712 0.705677,-3.83712 l 1.146725,-0.57336 1.764193,0.70567 -2.028822,2.11704 -0.926201,2.55808 -0.485152,2.29344 3.572489,3.21966 0.749783,2.64629 z"
       id="path4794"
       inkscape:connector-curvature="0" />
    <path
       style="fill:#005600;fill-opacity:1;stroke:#005600;stroke-width:0.18244602px;stroke-linecap:butt;stroke-linejoin:miter;stroke-opacity:1"
       d="m 34.1005,206.55342 -0.360989,-3.57249 c 0,0 0,0.0441 0.336925,-3.21965 0.336926,-3.26375 0.385059,-3.83711 0.385059,-3.83711 l 0.62572,-0.57337 0.962647,0.70568 -1.107043,2.11703 -0.50539,2.55807 -0.264727,2.29346 1.949358,3.21965 0.409128,2.64628 z"
       id="path4794-7"
       inkscape:connector-curvature="0" />
    <flowRoot
       xml:space="preserve"
       id="flowRoot4811"
       style="font-style:normal;font-weight:normal;font-size:40px;line-height:1.25;font-family:sans-serif;letter-spacing:0px;word-spacing:0px;fill:#000000;fill-opacity:1;stroke:none"
       transform="scale(0.26458333)"><flowRegion
         id="flowRegion4813"><rect
           id="rect4815"
           width="189.90868"
           height="581.84784"
           x="62.629459"
           y="104.28592" /></flowRegion><flowPara
         id="flowPara4817">méditationNutritional value per 100 g (3.5 oz)Energy	166 kJ (40 kcal)Carbohydrates 8.8 gSugar 5.3 gDietary fiber 1.5 gFat 0.4 gProtein 1.9 gVitamin A 48 μgequiv. beta-Carotene 534 μgVitamin B6 0.51 mgVitamin C 144 mgIron 1 mgMagnesium 23 mgPotassium 322 mgWater	88 g</flowPara><flowPara
         id="flowPara4819" /><flowPara
         id="flowPara4821" /><flowPara
         id="flowPara4823" /><flowPara
         id="flowPara4825" /><flowPara
         id="flowPara4827" /><flowPara
         id="flowPara4829" /><flowPara
         id="flowPara4831" /><flowPara
         id="flowPara4833" /><flowPara
         id="flowPara4835" /><flowPara
         id="flowPara4837" /><flowPara
         id="flowPara4839" /><flowPara
         id="flowPara4841" /><flowPara
         id="flowPara4843" /><flowPara
         id="flowPara4845" /><flowPara
         id="flowPara4847" /><flowPara
         id="flowPara4849" /><flowPara
         id="flowPara4851" /><flowPara
         id="flowPara4853" /></flowRoot>  </g>
</svg>
